<?xml version="1.0" encoding="utf-8"?>
<!-- Generator: Adobe Illustrator 15.1.0, SVG Export Plug-In  -->
<!DOCTYPE svg PUBLIC "-//W3C//DTD SVG 1.1//EN" "http://www.w3.org/Graphics/SVG/1.1/DTD/svg11.dtd" [
	<!ENTITY ns_flows "http://ns.adobe.com/Flows/1.0/">
]>
<svg version="1.1"
	 xmlns="http://www.w3.org/2000/svg" xmlns:xlink="http://www.w3.org/1999/xlink" xmlns:a="http://ns.adobe.com/AdobeSVGViewerExtensions/3.0/"
	 x="0px" y="0px" width="331px" height="90px" viewBox="113.567 197.001 331 90"
	 overflow="visible" enable-background="new 113.567 197.001 331 90" xml:space="preserve">
<defs>
</defs>
<g>
	<defs>
		<rect id="SVGID_1_" width="800" height="600"/>
	</defs>
	<clipPath id="SVGID_2_">
		<use xlink:href="#SVGID_1_"  overflow="visible"/>
	</clipPath>
	<path clip-path="url(#SVGID_2_)" fill="#1A171B" d="M184.704,213.456c0-8.022-7.916-16.455-21.385-16.455H141.37h-20.303h-5.202
		c-1.273,0-2.305,1.03-2.304,2.321c0,0.292,0.007,5.138,0.007,85.469c0,1.273,1.031,2.305,2.304,2.305h47.447
		c11.765,0,21.385-7.223,21.385-16.591c0,0,0.747-17.356,0.749-28.459C185.454,230.893,184.704,213.456,184.704,213.456
		 M153.758,266.917c0,4.708-1.073,5.539-4.486,5.539h-4.463v-60.813h4.463c3.413,0,4.486,0.828,4.486,5.537
		c0,0,0.747,15.164,0.747,24.866C154.505,251.75,153.758,266.917,153.758,266.917"/>
	<path clip-path="url(#SVGID_2_)" fill="#1A171B" d="M365.844,213.166c1.271,0,2.301-1.031,2.301-2.305l0.004-11.557
		c0-1.272-1.033-2.304-2.305-2.304l-45.709,0.001c-1.273,0-2.305,1.03-2.305,2.321c0,1.534,0.008,5.138,0.008,85.469
		c0,1.273,1.031,2.305,2.304,2.305h45.702c1.271,0,2.301-1.031,2.301-2.305l0.004-11.557c0-1.273-1.033-2.304-2.305-2.304h-17.871
		v-24.313h17.871c1.271,0,2.301-1.033,2.301-2.305l0.004-11.557c0-1.272-1.033-2.305-2.305-2.305h-17.871v-17.285H365.844z"/>
	<path clip-path="url(#SVGID_2_)" fill="#1A171B" d="M311.275,197.001h-52.783c-1.271,0-2.303,1.031-2.303,2.304l0.004,11.557
		c0,1.272,1.027,2.306,2.3,2.306h23.242l-23.792,53.683l-13.898-68.038c-0.228-1.034-1.153-1.811-2.256-1.811h-37.133
		c-1.102,0-2.028,0.777-2.255,1.811l-17.443,85.387c-0.05,0.189-0.077,0.388-0.077,0.592c0,1.273,1.032,2.304,2.305,2.304h24.709
		c1.206,0,2.195-0.926,2.296-2.108l2.518-16.148h5.255h1.259h6.512l2.521,16.148c0.099,1.183,1.088,2.108,2.295,2.108h22.926v0.013
		l53.781-0.013c1.272,0,2.302-1.03,2.302-2.304l0.004-11.557c0-1.272-1.033-2.305-2.306-2.305l-22.703,0.004l25.021-55.834v-15.794
		C313.576,198.032,312.549,197.001,311.275,197.001 M218.253,254.878l4.97-32.662l4.969,32.662H218.253z"/>
	<path clip-path="url(#SVGID_2_)" fill="#1A171B" d="M443.593,213.457c0-8.022-7.916-16.458-21.387-16.458h-21.948h-20.303h-5.203
		c-1.272,0-2.304,1.031-2.304,2.322c0.001,0.292,0.009,5.139,0.009,85.472c0,1.272,1.03,2.304,2.303,2.304l47.446,0.002
		c11.766,0,21.387-7.226,21.387-16.591c0,0,0.747-17.359,0.749-28.463C444.342,230.893,443.593,213.457,443.593,213.457
		 M412.646,266.918c0,4.707-1.072,5.539-4.485,5.539h-4.465v-60.815h4.465c3.413,0,4.485,0.83,4.485,5.538
		c0,0,0.747,15.165,0.747,24.865C413.393,251.75,412.646,266.918,412.646,266.918"/>
</g>
</svg>
