<?xml version="1.0" encoding="utf-8"?>
<!-- Generator: Adobe Illustrator 17.1.0, SVG Export Plug-In . SVG Version: 6.00 Build 0)  -->
<!DOCTYPE svg PUBLIC "-//W3C//DTD SVG 1.1//EN" "http://www.w3.org/Graphics/SVG/1.1/DTD/svg11.dtd">
<svg version="1.1" id="Layer_1" xmlns="http://www.w3.org/2000/svg" xmlns:xlink="http://www.w3.org/1999/xlink" x="0px" y="0px"
	 viewBox="0 59.2 100 40.7" enable-background="new 0 59.2 100 40.7" xml:space="preserve">
<rect x="2.1" y="72.8" fill="#FFFFFF" width="7.9" height="19.7"/>
<g>
	<g>
		<g>
			<g>
				<defs>
					<rect id="SVGID_1_" y="59.2" width="100" height="40.7"/>
				</defs>
				<clipPath id="SVGID_2_">
					<use xlink:href="#SVGID_1_"  overflow="visible"/>
				</clipPath>
				<path clip-path="url(#SVGID_2_)" fill="#FFFFFF" d="M30.8,83.8h-0.6c-3.3,0-5.6,0.2-6.9,0.6s-1.9,1.1-1.9,2.2
					c0,0.7,0.3,1.3,1,1.6c0.7,0.4,1.6,0.5,3,0.5c1.8,0,3.1-0.4,4.1-1.2c0.9-0.8,1.4-1.9,1.4-3.4C30.8,84.2,30.8,83.8,30.8,83.8z
					 M31,89.7c-0.9,1.1-2.1,2-3.8,2.5c-1.7,0.6-3.6,0.9-5.9,0.9c-2.6,0-4.6-0.5-6.1-1.6c-1.4-1-2.1-2.5-2.1-4.4
					c0-1.2,0.3-2.3,0.8-3.2c0.6-1,1.3-1.7,2.4-2.3c0.8-0.5,2-0.9,3.5-1.1c1.5-0.2,3.9-0.3,7.1-0.3h3.9c0-0.1,0-0.2,0-0.3
					s0-0.2,0-0.3c0-1.1-0.3-1.9-1-2.4c-0.7-0.6-1.6-0.8-2.9-0.8c-1.4,0-2.5,0.2-3.2,0.6s-1.1,1-1.3,1.8h-8c0.3-2.1,1.4-3.7,3.4-4.7
					s5.1-1.5,9.1-1.5c3.9,0,6.8,0.6,8.6,1.8c1.8,1.2,2.8,3.1,2.8,5.7v10.1c0,0.6,0,1,0.1,1.5c0.1,0.4,0.2,0.8,0.3,1.2h-7.4
					c-0.2-0.4-0.3-0.8-0.4-1.2s-0.1-0.9-0.1-1.4C31,89.9,31,89.7,31,89.7z"/>
			</g>
		</g>
	</g>
	<g>
		<g>
			<g>
				<defs>
					<rect id="SVGID_3_" y="59.2" width="100" height="40.7"/>
				</defs>
				<clipPath id="SVGID_4_">
					<use xlink:href="#SVGID_3_"  overflow="visible"/>
				</clipPath>
				<path clip-path="url(#SVGID_4_)" fill="#FFFFFF" d="M11.8,64.9c0,3.1-2.6,5.6-5.9,5.6S0,68.1,0,64.9c0-3.1,2.6-5.6,5.9-5.6
					C9.1,59.2,11.8,61.8,11.8,64.9"/>
			</g>
		</g>
	</g>
	<g>
		<g>
			<g>
				<defs>
					<rect id="SVGID_5_" y="59.2" width="100" height="40.7"/>
				</defs>
				<clipPath id="SVGID_6_">
					<use xlink:href="#SVGID_5_"  overflow="visible"/>
				</clipPath>
				<path clip-path="url(#SVGID_6_)" fill="#FFFFFF" d="M86.3,89.1c1.7,0,3.1-0.5,4.1-1.6s1.5-2.5,1.5-4.3c0-2-0.5-3.6-1.5-4.7
					s-2.4-1.7-4.2-1.7c-1.8,0-3.2,0.5-4.2,1.6s-1.5,2.6-1.5,4.5c0,2,0.5,3.5,1.5,4.6C82.9,88.6,84.4,89.1,86.3,89.1 M72.6,100V77.2
					c0-0.7,0-1.4-0.1-2.1c-0.1-0.7-0.1-1.5-0.2-2.3h8c0.1,0.5,0.1,1,0.2,1.5c0,0.5,0.1,1,0.1,1.5v0.6c1.1-1.4,2.4-2.4,3.9-3.1
					s3.2-1.1,5.1-1.1c3.3,0,5.8,0.9,7.7,2.8c1.8,1.9,2.8,4.4,2.8,7.8c0,3.1-0.9,5.6-2.8,7.5c-1.9,1.8-4.5,2.8-7.7,2.8
					c-1.8,0-3.4-0.3-4.9-0.8c-1.5-0.6-2.8-1.4-4-2.5v10.3L72.6,100L72.6,100z"/>
			</g>
		</g>
	</g>
	<g>
		<g>
			<g>
				<defs>
					<rect id="SVGID_7_" y="59.2" width="100" height="40.7"/>
				</defs>
				<clipPath id="SVGID_8_">
					<use xlink:href="#SVGID_7_"  overflow="visible"/>
				</clipPath>
				<path clip-path="url(#SVGID_8_)" fill="#FFFFFF" d="M55.9,89.1c1.7,0,3.1-0.5,4.1-1.6s1.5-2.5,1.5-4.3c0-2-0.5-3.6-1.5-4.7
					s-2.4-1.7-4.2-1.7s-3.2,0.5-4.2,1.6s-1.5,2.6-1.5,4.5c0,2,0.5,3.5,1.5,4.6C52.6,88.6,54,89.1,55.9,89.1 M42.3,100.1V77.2
					c0-0.7,0-1.4-0.1-2.1c-0.1-0.7-0.1-1.5-0.2-2.3h8c0.1,0.5,0.1,1,0.2,1.5c0,0.5,0.1,1,0.1,1.5v0.6c1.1-1.4,2.4-2.4,3.9-3.1
					s3.2-1.1,5.1-1.1c3.3,0,5.8,0.9,7.7,2.8c1.8,1.9,2.8,4.4,2.8,7.8c0,3.1-1,5.6-2.8,7.5c-1.9,1.8-4.5,2.8-7.7,2.8
					c-1.8,0-3.4-0.3-4.9-0.8c-1.5-0.6-2.8-1.4-4-2.5v10.3L42.3,100.1L42.3,100.1z"/>
			</g>
		</g>
	</g>
</g>
</svg>
