<svg xmlns="http://www.w3.org/2000/svg" viewBox="0 0 91.4 35.3" enable-background="new 0 0 91.4 35.3"><path d="m6.3 8.2l9 20.5h1l8.8-20.5v13.5c0 4.7-.6 5.5-4.3 5.5v1.4h14v-1.4c-3.8 0-4.3-.8-4.3-5.5v-14.4c0-4.7.5-5.5 4.3-5.5v-1.4h-8.8l-8.4 20.2-8.6-20.2h-9v1.4c3.7 0 4.3.8 4.3 5.5v14.4c0 4.7-.5 5.5-4.3 5.5v1.4h10.6v-1.4c-3.7 0-4.3-.8-4.3-5.5v-13.5"/><path d="m62.9 8.2l9 20.5h1l8.8-20.5v13.5c0 4.7-.6 5.5-4.3 5.5v1.4h14v-1.4c-3.8 0-4.3-.8-4.3-5.5v-14.4c0-4.7.5-5.5 4.3-5.5v-1.4h-8.8l-8.4 20.2-8.7-20.2h-9v1.4c3.7 0 4.3.8 4.3 5.5v15c0 4.7-.5 4.8-4.3 4.8v1.4h10.6v-1.4c-3.7 0-4.3-.8-4.3-5.5v-13.4z"/><path d="m44.8 20c1.1 1.3 2.2 2.4 3 3.3-.9.9-2.5 2.7-6.2 2.7-3.9 0-6.8-2.6-7.3-6h-3.4c0 .4 0 .7 0 1.1.4 4.2 4.2 7.8 9.4 7.8 5.3 0 7.9-3.1 8.8-4 .9 1 2.2 2.7 4.2 3.6h5.5c2.5-1.3 3.6-4.3 3.5-5.4 0-.5-.6-.7-.9-1-.3-.2-.5-.1-.5.3 0 .6-.5 2.9-3.3 3.2-2.4.3-4.5-1.9-6-3.5.3-.6.7-1.3 1.1-2.1h-2.3c-.1.2-.2.3-.3.5 0 0-.2-.2-.5-.5h-4.8"/><path d="m50.3 20c1-1.9 3.1-6.5 2.9-8.6-.1-1.3-.8-2.2-2.3-2.2-.8 0-1.4.8-1.8.8-.4 0-.9-.2-.9-.7-.2-1.1.7-1.9 1.8-1.9.6 0 2.7.4 5.5.4.9 0 2.4-.4 3.6-.4.8 0 1.4.4 1.5 1.2.1.6-.2.7-.6.8-1.6 0-2 0-2.5.4-1.8.8-2 4.7-3.8 8.3-.3.6-.6 1.2-1 1.9h-2.4m-19.5 0c.2-4.7 4.5-7.4 6.5-8.2-1-1.2-2.1-2.3-2.3-4.5-.4-3.6 2.9-7.3 7.3-7.3 3.3 0 5.2 2 5.4 4 .2 1.9-1.2 3.2-3.2 3.2-1.9 0-2.9-1.2-3-1.9 0-.3-.1-.7.3-.7.4 0 .7.2 1.1.2.9 0 1.2-.6 1.2-1.2-.1-1.1-1.1-1.8-2.4-1.8-2.3 0-4.5 2.2-4.1 4.2.4 2.5 2.4 4.1 6.5 8.4 1.9 2 4.4 4.6 5.4 5.7h-4.8c-1.8-2-3.9-4.4-6.2-6.9-1.6.7-4.8 2.2-4.4 6.4 0 .2 0 .3.1.5h-3.4z"/><path d="m1.3 31.2l1.8 4.1h.2l1.7-4.1v2.6c0 .9-.1 1.1-.8 1.1v.3h2.7v-.3c-.7 0-.8-.2-.8-1.1v-2.8c-.1-.9 0-1 .8-1v-.3h-1.7l-1.6 3.9-1.7-3.9h-1.8v.3c.7 0 .8.2.8 1.1v2.8c0 .9-.1 1.1-.8 1.1v.3h2.1v-.3c-.7 0-.8-.2-.8-1.1v-2.7z"/><path d="m9 33.3h-1.1l.6-1.4.5 1.4m-1.2.3h1.4l.3.7c.2.4.1.6-.6.6v.2h2.4v-.2c-.6 0-.7-.2-.9-.7l-1.6-3.8h-.1l-1.6 3.8c-.2.5-.4.7-.9.7v.2h1.8v-.2c-.6 0-.7-.2-.5-.6l.3-.7"/><path d="m12.8 32.8h-.4v-1.8h.4c.6 0 .9.4.9.9 0 .5-.3.9-.9.9m.6.4c.8-.1 1.3-.6 1.3-1.3 0-.7-.6-1.3-1.5-1.3h-2.4v.2c.6 0 .7.1.7.9v2.3c0 .8-.1.9-.7.9v.2h2.3v-.2c-.6 0-.7-.1-.7-.9v-.9h.2l1.3 2h1.6v-.2c-.4-.1-.7-.2-1.4-1l-.7-.7z"/><path d="m17.7 32.3l1-.9c.5-.4.7-.6 1.3-.6v-.2h-1.7v.2c.6 0 .2.5 0 .6l-1.5 1.3v-1c0-.8.1-.9.7-.9v-.2h-2.3v.2c.6 0 .7.1.7.9v2.3c0 .8-.1.9-.7.9v.2h2.3v-.2c-.6 0-.7-.1-.7-.9v-.9l.3-.3 1.4 1.6c.3.3.1.4-.3.4v.2h2.4v-.2c-.2 0-.7-.2-.9-.4l-2-2.1"/><path d="m22.8 32.3l1-.9c.5-.4.7-.6 1.3-.6v-.2h-1.8v.2c.6 0 .2.5 0 .6l-1.5 1.3v-1c0-.8.1-.9.7-.9v-.2h-2.3v.2c.6 0 .7.1.7.9v2.3c0 .8-.1.9-.7.9v.2h2.3v-.2c-.6 0-.7-.1-.7-.9v-.9l.3-.3 1.4 1.6c.3.3.1.4-.3.4v.2h2.4v-.2c-.2 0-.7-.2-.9-.4l-1.9-2.1"/><path d="m27.7 35.1v-.2c-.6 0-.7-.1-.7-.9v-2.3c0-.8.1-.9.7-.9v-.2h-2.3v.2c.6 0 .7.1.7.9v2.3c0 .8-.1.9-.7.9v.2h2.3"/><path d="m31.6 33.6l-2.4-3h-1.4v.2c.6 0 .7.1.7.9v2.3c0 .8-.1.9-.7.9v.2h1.7v-.2c-.6 0-.7-.1-.7-.9v-2.5l3 3.7h.2v-3.5c0-.8.1-.9.7-.9v-.2h-1.7v.2c.6 0 .7.1.7.9v1.9z"/><path d="m36.4 32.9c0 .9-.4 2-1.4 2-1 0-1.4-1.1-1.4-2 0-.9.4-2 1.4-2 1 0 1.4 1.1 1.4 2m1 0c0-1.3-1.1-2.4-2.4-2.4-1.3 0-2.4 1.1-2.4 2.4 0 1.3 1.1 2.4 2.4 2.4 1.3 0 2.4-1.1 2.4-2.4"/><path d="m39.8 35.1v-.2c-.6 0-.7-.1-.7-.9v-2.3c0-.8.1-.9.7-.9v-.2h-2.3v.2c.6 0 .7.1.7.9v2.3c0 .8-.1.9-.7.9v.2h2.3"/><path d="m43.7 33.6l-2.4-3h-1.4v.2c.6 0 .7.1.7.9v2.3c0 .8-.1.9-.7.9v.2h1.7v-.2c-.6 0-.7-.1-.7-.9v-2.5l3 3.7h.1v-3.5c0-.8.1-.9.7-.9v-.2h-1.7v.2c.6 0 .7.1.7.9v1.9"/><path d="m48.9 30.6h-4.4l-.1 1.1h.2v-.2c.1-.4.2-.6.8-.6h.7v3.1c0 .8-.1.9-.7.9v.2h2.3v-.2c-.6 0-.7-.1-.7-.9v-3h.7c.7 0 .7.2.8.6v.2h.5l-.1-1.2"/><path d="m51 35.1v-.2c-.6 0-.7-.1-.7-.9v-2.3c0-.8.1-.9.7-.9v-.2h-2.3v.2c.6 0 .7.1.7.9v2.3c0 .8-.1.9-.7.9v.2h2.3"/><path d="m56.9 31.2l1.8 4.1h.2l1.7-4.1v2.6c0 .9-.1 1.1-.8 1.1v.3h2.7v-.3c-.7 0-.8-.2-.8-1.1v-2.8c0-.9.1-1.1.8-1.1v-.3h-1.7l-1.6 3.9-1.7-3.9h-1.7v.4c.7 0 .8.2.8 1.1v2.8c0 .9-.1 1.1-.8 1.1v.3h2.1v-.3c-.7 0-.8-.2-.8-1.1v-2.7z"/><path d="m64.7 33.3h-1.2l.6-1.4.6 1.4m-1.3.3h1.4l.3.7c.2.4.1.6-.5.6v.2h2.4v-.2c-.6 0-.7-.2-.9-.7l-1.6-3.8h-.2l-1.6 3.8c-.2.5-.4.7-.9.7v.2h1.8v-.2c-.6 0-.7-.2-.5-.6l.3-.7"/><path d="m68.7 35.1v-.2c-.6 0-.7-.1-.7-.9v-2.3c0-.8.1-.9.7-.9v-.2h-2.3v.2c.6 0 .7.1.7.9v2.3c0 .8-.1.9-.7.9v.2h2.3"/><path d="m72.5 33.6l-2.4-3h-1.4v.2c.6 0 .7.1.7.9v2.3c0 .8-.1.9-.7.9v.2h1.7v-.2c-.6 0-.7-.1-.7-.9v-2.5l3 3.7h.2v-3.5c0-.8.1-.9.7-.9v-.2h-1.7v.2c.6 0 .7.1.7.9v1.9z"/><path d="m77.3 32.9c0 .9-.4 2-1.4 2-1 0-1.4-1.1-1.4-2 0-.9.4-2 1.4-2 1 0 1.4 1.1 1.4 2m1 0c0-1.3-1.1-2.4-2.4-2.4-1.3 0-2.4 1.1-2.4 2.4 0 1.3 1.1 2.4 2.4 2.4 1.3 0 2.4-1.1 2.4-2.4"/><path d="m82.2 33.6l-2.4-3h-1.4v.2c.6 0 .7.1.7.9v2.3c0 .8-.1.9-.7.9v.2h1.6v-.2c-.6 0-.7-.1-.7-.9v-2.5l3 3.7h.2v-3.5c0-.8.1-.9.7-.9v-.2h-1.7v.2c.6 0 .7.1.7.9v1.9"/><path d="m87.4 30.6h-4.4v1.1h.2v-.2c.1-.4.2-.6.8-.6h.7v3.1c0 .8-.1.9-.7.9v.2h2.3v-.2c-.6 0-.7-.1-.7-.9v-3h.7c.7 0 .7.2.8.6v.2h.2l.1-1.2"/><path d="m89.1 33.3h-1.1l.6-1.4.5 1.4m-1.3.3h1.4l.3.7c.2.4.1.6-.5.6v.2h2.4v-.2c-.6 0-.7-.2-.9-.7l-1.6-3.8h-.2l-1.6 3.8c-.2.5-.4.7-.9.7v.2h1.8v-.2c-.6 0-.7-.2-.5-.6l.3-.7"/><path d="m52.5 35.2c-1 0-1.7-.7-1.8-1.5-.1-1 .8-1.6 1.3-1.8-.2-.2-.4-.5-.4-.9-.1-.7.6-1.4 1.4-1.4.6 0 1 .4 1 .8 0 .4-.2.6-.6.6-.4 0-.6-.2-.6-.4 0 0 0-.1.1-.1.1 0 .1 0 .2 0 .2 0 .2-.1.2-.2 0-.2-.2-.3-.5-.3-.5 0-.9.4-.8.8.1.5.5.8 1.3 1.6.5.5 1.1 1.2 1.2 1.2.2-.3.6-1.3.6-1.8 0-.2-.2-.4-.4-.4-.2 0-.3.2-.4.2-.1 0-.2 0-.2-.1 0-.2.2-.4.4-.4.1 0 .5.1 1.1.1.2 0 .5-.1.7-.1.1 0 .3.1.3.2 0 .1 0 .1-.1.2-.3 0-.4 0-.5.1-.3.2-.4.9-.7 1.6-.1.2-.3.5-.4.8.3.3.7.7 1.2.7.5-.1.6-.5.6-.6 0-.1 0-.1.1-.1.1 0 .2.1.2.2 0 .2-.2.8-.7 1h-1.1c-.4-.2-.7-.5-.8-.7-.3.1-.8.7-1.9.7m-1.1-1.8c-.1-.8.5-1.1.9-1.2.7.8 1.4 1.5 1.8 2-.2.2-.5.5-1.2.5-.9 0-1.5-.6-1.5-1.3"/><path d="m51.3 33.4c-.1-.8.5-1.1.9-1.2.7.8 1.4 1.5 1.8 2-.2.2-.5.5-1.2.5-.8 0-1.4-.6-1.5-1.3" fill="#fff"/></svg>