<?xml version="1.0" encoding="UTF-8" standalone="no"?>
<svg width="75px" height="75px" viewBox="0 0 75 75" version="1.1" xmlns="http://www.w3.org/2000/svg" xmlns:xlink="http://www.w3.org/1999/xlink" xmlns:sketch="http://www.bohemiancoding.com/sketch/ns">
    <title>ADNAUSEUM_logo</title>
    <description>Created with Sketch (http://www.bohemiancoding.com/sketch)</description>
    <defs></defs>
    <g id="Page-1" stroke="none" stroke-width="1" fill="none" fill-rule="evenodd" sketch:type="MSPage">
        <g id="ADNAUSEUM-logo-sml" sketch:type="MSLayerGroup" transform="translate(-2.000000, 2.000000)" fill="#404040">
            <text id="ADNAUSEUM" sketch:type="MSTextLayer" font-family="Bebas Neue" font-size="19.862069" font-weight="bold" sketch:alignment="middle">
                <tspan x="2.97710345" y="71">ADNAUSEUM</tspan>
            </text>
            <path d="M70.3600558,56 C73.9320837,50.3588579 76,43.6709229 76,36.5 C76,16.3416056 59.6583944,0 39.5,0 C19.3416056,0 3,16.3416056 3,36.5 C3,43.6709229 5.06791633,50.3588579 8.63994422,56 L11.800099,56 C8.13808226,50.5754747 6,44.0374254 6,37 C6,18.2223176 21.2223176,3 40,3 C58.7776824,3 74,18.2223176 74,37 C74,44.0374254 71.8619177,50.5754747 68.199901,56 L70.3600558,56 Z" id="Oval-18" sketch:type="MSShapeGroup"></path>
            <path d="M49.9796463,46.1055551 C50.6236435,45.0226683 50.9874533,43.671078 50.999722,42 C51.0452143,35.8036318 45.5002071,34 40.0006923,34 C34.5011774,34.0000006 29.1082325,35.7711149 29.0016626,42 C28.9728166,43.6860062 29.3203759,45.045413 29.9631525,46.1314997 C32.6445573,44.8981301 40,44 40,44 C40,44 47.2524569,44.8855551 49.9796463,46.1055551 Z M27,8.03133174 L27,47 L27.3837891,47 L27.3837891,47 C27.3837891,50.5880747 29.7459456,53.6244378 33,54.6388307 L33,54.6388307 L33,55 L48,55 L48.0000008,54.1379608 C50.6012608,52.8175036 52.3837891,50.1169178 52.3837891,47 L53,47 L53,7.57758564 C49.1679079,5.91914494 44.9412929,5 40.5,5 C35.6688114,5 31.0916478,6.08760989 26.9999982,8.03134076 L27,8.03133174 Z" id="Rectangle-51" sketch:type="MSShapeGroup"></path>
        </g>
    </g>
</svg>