<?xml version="1.0" encoding="UTF-8" standalone="no"?>
<svg width="9px" height="9px" viewBox="0 0 9 9" version="1.1" xmlns="http://www.w3.org/2000/svg" xmlns:xlink="http://www.w3.org/1999/xlink" xmlns:sketch="http://www.bohemiancoding.com/sketch/ns">
    <!-- Generator: Sketch 3.0.1 (7597) - http://www.bohemiancoding.com/sketch -->
    <title>Shape</title>
    <description>Created with Sketch.</description>
    <defs></defs>
    <g id="Page-1" stroke="none" stroke-width="1" fill="none" fill-rule="evenodd" sketch:type="MSPage">
        <path d="M5.875,0.031 C5.691,0.041 5.521,0.061 5.344,0.125 C5.074,0.22 4.813,0.375 4.594,0.594 C4.41805511,0.702455029 4.32697587,0.907988923 4.36481908,1.11118092 C4.40266229,1.31437292 4.56162708,1.47333771 4.76481908,1.51118092 C4.96801108,1.54902413 5.17354497,1.45794489 5.282,1.282 C5.383,1.181 5.527,1.109 5.657,1.063 C6.009,0.937 6.437,0.999 6.72,1.282 C7.115,1.671 7.12,2.319 6.72,2.72 L5.22,4.22 C4.786,4.654 4.421,4.703 4.157,4.689 C3.893,4.674 3.751,4.564 3.751,4.564 C3.59441086,4.47014996 3.39931263,4.46831487 3.24098586,4.55920282 C3.08265908,4.65009077 2.98585897,4.81949097 2.98793679,5.00203869 C2.99001461,5.18458641 3.09064548,5.35173938 3.251,5.439 C3.41135452,5.52626062 3.591,5.661 4.095,5.689 C4.599,5.717 5.292,5.524 5.908,4.908 L7.408,3.408 C8.188,2.628 8.193,1.367 7.408,0.595 C7.129,0.316 6.802,0.143 6.439,0.064 C6.258,0.025 6.06,0.023 5.876,0.033 L5.875,0.031 Z M3.875,2.344 C3.374,2.325 2.689,2.499 2.094,3.094 L0.594,4.594 C-0.186,5.374 -0.191,6.635 0.594,7.407 C1.151,7.964 1.949,8.129 2.657,7.876 C2.927,7.781 3.188,7.626 3.407,7.407 C3.58294489,7.29854497 3.67402413,7.09301108 3.63618092,6.88981908 C3.59833771,6.68662708 3.43937292,6.52766229 3.23618092,6.48981908 C3.03298892,6.45197587 2.82745503,6.54305511 2.719,6.719 C2.618,6.82 2.474,6.892 2.344,6.938 C1.992,7.064 1.564,7.002 1.281,6.719 C0.886,6.33 0.881,5.682 1.281,5.281 L2.781,3.781 C3.186,3.376 3.533,3.333 3.812,3.343 C4.091,3.354 4.281,3.437 4.281,3.437 C4.44036414,3.56373116 4.66065922,3.58116779 4.83797594,3.48108533 C5.01529266,3.38100287 5.11421006,3.18339391 5.08807055,2.98146708 C5.06193105,2.77954026 4.9159563,2.61363267 4.719,2.562 C4.5220437,2.51036733 4.376,2.363 3.875,2.343 L3.875,2.344 Z" id="Shape" fill="#FFFFFF" sketch:type="MSShapeGroup"></path>
    </g>
</svg>