<?xml version="1.0" encoding="utf-8"?><!DOCTYPE svg PUBLIC "-//W3C//DTD SVG 1.1//EN" "http://www.w3.org/Graphics/SVG/1.1/DTD/svg11.dtd"><svg version="1.1" id="Layer_1" xmlns="http://www.w3.org/2000/svg" xmlns:xlink="http://www.w3.org/1999/xlink" x="0px" y="0px"  width="100px" height="38px" viewBox="0 0 100 38" style="enable-background:new 0 0 100 38;" xml:space="preserve"><style type="text/css"><![CDATA[ .st0{fill:#130F10;} .st1{fill:#2E7785;} .st2{fill:#DB0228;}]]></style><polygon class="st2" points="0,37.3 10,37.3 10,16.4 19.3,30.6 19.5,30.6 28.9,16.3 28.9,37.3 39,37.3 39,0.7 28.2,0.7 19.5,14.9  10.7,0.7 0,0.7 "/><path class="st1" d="M59.8,14.1c0,2.9-2.2,4.8-5.8,4.8h-4.8V9.2h4.8c3.7,0,5.9,1.7,5.9,4.8V14.1z M68.6,7.5 c-2.3-4.4-7.2-6.8-13.9-6.8H39v36.5h10.2V26.8h5c4.5,0,8.4-1.1,11.2-3.2c-0.3-1.4-0.5-2.9-0.5-4.5V19C64.8,14.7,66.2,10.7,68.6,7.5" /><path class="st0" d="M83.8,38c8.1,0,12.8-3.5,16.2-8.2l-7.7-5.4c-2.2,2.7-4.5,4.4-8.3,4.4c-5.1,0-8.8-4.3-8.8-9.8v-0.1 c0-5.3,3.6-9.7,8.8-9.7c3.5,0,5.9,1.7,8,4.3l7.7-5.9C96.5,3.1,91.7,0,84.2,0C73.1,0,64.8,8.4,64.8,19v0.1C64.8,30,73.3,38,83.8,38" /></svg>